<svg xmlns="http://www.w3.org/2000/svg" xmlns:xlink="http://www.w3.org/1999/xlink" width="100" zoomAndPan="magnify" viewBox="0 0 75 74.999997" height="100" preserveAspectRatio="xMidYMid meet" version="1.2"><defs><clipPath id="8c13bff99f"><path d="M 2 11.726562 L 73 11.726562 L 73 63.476562 L 2 63.476562 Z M 2 11.726562 "/></clipPath></defs><g id="1f0bcf3c54"><g clip-rule="nonzero" clip-path="url(#8c13bff99f)"><path style=" stroke:none;fill-rule:nonzero;fill:#ece8e1;fill-opacity:1;" d="M 65.140625 11.726562 L 28.65625 11.726562 C 26.820312 11.726562 25.0625 12.105469 23.386719 12.855469 C 21.714844 13.605469 20.265625 14.667969 19.042969 16.039062 L 4.589844 32.300781 C 4.28125 32.652344 4.003906 33.027344 3.761719 33.425781 C 3.519531 33.828125 3.3125 34.246094 3.148438 34.683594 C 2.980469 35.121094 2.855469 35.570312 2.769531 36.03125 C 2.6875 36.488281 2.644531 36.953125 2.644531 37.421875 C 2.644531 37.890625 2.6875 38.355469 2.769531 38.816406 C 2.855469 39.273438 2.980469 39.722656 3.148438 40.160156 C 3.3125 40.597656 3.519531 41.019531 3.761719 41.417969 C 4.003906 41.816406 4.28125 42.191406 4.589844 42.542969 L 19.042969 58.804688 C 20.265625 60.175781 21.714844 61.238281 23.386719 61.988281 C 25.0625 62.742188 26.820312 63.117188 28.65625 63.117188 L 65.140625 63.117188 C 65.648438 63.117188 66.148438 63.066406 66.644531 62.96875 C 67.140625 62.871094 67.625 62.722656 68.089844 62.53125 C 68.558594 62.335938 69.003906 62.097656 69.425781 61.816406 C 69.84375 61.535156 70.234375 61.214844 70.59375 60.859375 C 70.949219 60.5 71.269531 60.113281 71.550781 59.691406 C 71.832031 59.269531 72.070312 58.824219 72.261719 58.359375 C 72.457031 57.890625 72.601562 57.410156 72.703125 56.910156 C 72.800781 56.414062 72.851562 55.914062 72.851562 55.40625 L 72.851562 19.4375 C 72.851562 18.929688 72.800781 18.429688 72.703125 17.933594 C 72.601562 17.4375 72.457031 16.953125 72.261719 16.488281 C 72.070312 16.019531 71.832031 15.574219 71.550781 15.152344 C 71.269531 14.734375 70.949219 14.34375 70.59375 13.984375 C 70.234375 13.628906 69.84375 13.308594 69.425781 13.027344 C 69.003906 12.746094 68.558594 12.507812 68.089844 12.316406 C 67.625 12.121094 67.140625 11.976562 66.644531 11.875 C 66.148438 11.777344 65.648438 11.726562 65.140625 11.726562 Z M 67.710938 55.40625 C 67.710938 55.75 67.644531 56.078125 67.515625 56.390625 C 67.386719 56.707031 67.199219 56.984375 66.957031 57.226562 C 66.71875 57.464844 66.441406 57.652344 66.125 57.78125 C 65.808594 57.914062 65.484375 57.976562 65.140625 57.976562 L 28.65625 57.976562 C 27.554688 57.976562 26.503906 57.75 25.5 57.300781 C 24.496094 56.851562 23.625 56.214844 22.894531 55.390625 L 8.429688 39.128906 C 8.21875 38.894531 8.058594 38.628906 7.949219 38.335938 C 7.835938 38.039062 7.78125 37.738281 7.78125 37.421875 C 7.78125 37.109375 7.835938 36.804688 7.949219 36.507812 C 8.058594 36.214844 8.21875 35.953125 8.429688 35.714844 L 22.882812 19.453125 C 23.617188 18.628906 24.484375 17.992188 25.492188 17.539062 C 26.5 17.089844 27.554688 16.863281 28.65625 16.867188 L 65.140625 16.867188 C 65.484375 16.867188 65.808594 16.933594 66.125 17.0625 C 66.441406 17.191406 66.71875 17.378906 66.957031 17.621094 C 67.199219 17.859375 67.386719 18.136719 67.515625 18.453125 C 67.644531 18.769531 67.710938 19.09375 67.710938 19.4375 Z M 67.710938 55.40625 "/></g><path style=" stroke:none;fill-rule:nonzero;fill:#ece8e1;fill-opacity:1;" d="M 56.679688 27.898438 C 56.441406 27.65625 56.160156 27.472656 55.847656 27.339844 C 55.53125 27.210938 55.203125 27.144531 54.863281 27.144531 C 54.523438 27.144531 54.195312 27.210938 53.882812 27.339844 C 53.566406 27.472656 53.289062 27.65625 53.046875 27.898438 L 47.15625 33.789062 L 41.265625 27.898438 C 41.023438 27.664062 40.746094 27.484375 40.429688 27.359375 C 40.117188 27.234375 39.792969 27.171875 39.457031 27.175781 C 39.121094 27.179688 38.796875 27.246094 38.484375 27.375 C 38.175781 27.507812 37.902344 27.691406 37.664062 27.929688 C 37.425781 28.167969 37.238281 28.441406 37.109375 28.75 C 36.980469 29.0625 36.914062 29.386719 36.910156 29.722656 C 36.90625 30.058594 36.96875 30.386719 37.09375 30.699219 C 37.21875 31.011719 37.398438 31.289062 37.632812 31.53125 L 43.523438 37.421875 L 37.632812 43.3125 C 37.382812 43.554688 37.191406 43.832031 37.054688 44.148438 C 36.917969 44.464844 36.851562 44.796875 36.847656 45.140625 C 36.84375 45.484375 36.90625 45.816406 37.039062 46.136719 C 37.167969 46.453125 37.355469 46.734375 37.597656 46.980469 C 37.84375 47.222656 38.125 47.410156 38.441406 47.539062 C 38.761719 47.671875 39.09375 47.734375 39.4375 47.730469 C 39.78125 47.726562 40.113281 47.660156 40.429688 47.523438 C 40.746094 47.386719 41.023438 47.195312 41.265625 46.945312 L 47.15625 41.054688 L 53.046875 46.945312 C 53.289062 47.179688 53.566406 47.359375 53.878906 47.484375 C 54.191406 47.609375 54.519531 47.671875 54.855469 47.667969 C 55.191406 47.664062 55.515625 47.597656 55.824219 47.46875 C 56.136719 47.339844 56.410156 47.152344 56.648438 46.914062 C 56.886719 46.675781 57.070312 46.402344 57.203125 46.09375 C 57.332031 45.78125 57.398438 45.457031 57.402344 45.121094 C 57.40625 44.785156 57.34375 44.460938 57.21875 44.148438 C 57.09375 43.832031 56.914062 43.554688 56.679688 43.3125 L 50.789062 37.421875 L 56.679688 31.53125 C 56.921875 31.289062 57.105469 31.011719 57.238281 30.695312 C 57.367188 30.382812 57.433594 30.054688 57.433594 29.714844 C 57.433594 29.375 57.367188 29.046875 57.238281 28.730469 C 57.105469 28.417969 56.921875 28.136719 56.679688 27.898438 Z M 56.679688 27.898438 "/></g></svg>