<svg xmlns="http://www.w3.org/2000/svg" xmlns:xlink="http://www.w3.org/1999/xlink" width="100" zoomAndPan="magnify" viewBox="0 0 75 74.999997" height="100" preserveAspectRatio="xMidYMid meet" version="1.2"><defs><clipPath id="c68f3dd34d"><path d="M 37.5 0 C 16.789062 0 0 16.789062 0 37.5 C 0 58.210938 16.789062 75 37.5 75 C 58.210938 75 75 58.210938 75 37.5 C 75 16.789062 58.210938 0 37.5 0 Z M 37.5 0 "/></clipPath><clipPath id="15cb9be88a"><path d="M 20.117188 15 L 54.617188 15 L 54.617188 60 L 20.117188 60 Z M 20.117188 15 "/></clipPath></defs><g id="f76815dd39"><g clip-rule="nonzero" clip-path="url(#c68f3dd34d)"><rect x="0" width="75" y="0" height="74.999997" style="fill:#0a0a0a;fill-opacity:1;stroke:none;"/></g><g clip-rule="nonzero" clip-path="url(#15cb9be88a)"><path style=" stroke:none;fill-rule:evenodd;fill:#62d033;fill-opacity:1;" d="M 54.621094 56.183594 L 54.621094 18.488281 C 54.621094 17.527344 54.230469 16.65625 53.597656 16.023438 C 52.964844 15.390625 52.09375 15 51.132812 15 L 23.605469 15 C 22.648438 15 21.773438 15.390625 21.144531 16.023438 C 20.511719 16.65625 20.117188 17.527344 20.117188 18.488281 L 20.117188 56.183594 C 20.117188 57.144531 20.511719 58.015625 21.144531 58.648438 C 21.773438 59.277344 22.648438 59.671875 23.605469 59.671875 L 51.132812 59.671875 C 52.09375 59.671875 52.964844 59.277344 53.597656 58.648438 C 54.230469 58.015625 54.621094 57.144531 54.621094 56.183594 Z M 25.21875 32.59375 L 28.722656 32.59375 C 29.324219 32.59375 29.871094 32.808594 30.265625 33.152344 C 30.664062 33.496094 30.90625 33.972656 30.90625 34.496094 L 30.90625 37.296875 C 30.90625 37.820312 30.664062 38.292969 30.265625 38.640625 C 29.871094 38.984375 29.324219 39.195312 28.722656 39.195312 L 25.21875 39.195312 C 24.617188 39.195312 24.070312 38.980469 23.675781 38.640625 C 23.277344 38.292969 23.03125 37.820312 23.03125 37.296875 L 23.03125 34.496094 C 23.03125 33.972656 23.277344 33.496094 23.675781 33.152344 C 24.070312 32.808594 24.617188 32.59375 25.21875 32.59375 Z M 35.324219 32.59375 L 38.824219 32.59375 C 39.425781 32.59375 39.972656 32.808594 40.371094 33.152344 C 40.765625 33.496094 41.011719 33.972656 41.011719 34.496094 L 41.011719 37.296875 C 41.011719 37.820312 40.765625 38.292969 40.371094 38.640625 C 39.972656 38.980469 39.425781 39.195312 38.824219 39.195312 L 35.324219 39.195312 C 34.71875 39.195312 34.171875 38.980469 33.777344 38.640625 C 33.382812 38.292969 33.136719 37.820312 33.136719 37.296875 L 33.136719 34.496094 C 33.136719 33.972656 33.382812 33.496094 33.777344 33.152344 C 34.171875 32.808594 34.71875 32.59375 35.324219 32.59375 Z M 45.425781 32.59375 L 48.929688 32.59375 C 49.53125 32.59375 50.078125 32.808594 50.472656 33.152344 C 50.867188 33.496094 51.113281 33.972656 51.113281 34.496094 L 51.113281 37.296875 C 51.113281 37.820312 50.867188 38.292969 50.472656 38.640625 C 50.078125 38.980469 49.53125 39.195312 48.929688 39.195312 L 45.425781 39.195312 C 44.824219 39.195312 44.277344 38.984375 43.882812 38.640625 C 43.484375 38.292969 43.238281 37.820312 43.238281 37.296875 L 43.238281 34.496094 C 43.238281 33.972656 43.484375 33.496094 43.882812 33.152344 C 44.277344 32.808594 44.824219 32.59375 45.425781 32.59375 Z M 25.21875 41.273438 L 28.722656 41.273438 C 29.324219 41.273438 29.871094 41.488281 30.265625 41.832031 C 30.664062 42.175781 30.90625 42.648438 30.90625 43.171875 L 30.90625 45.976562 C 30.90625 46.496094 30.664062 46.972656 30.265625 47.316406 C 29.871094 47.660156 29.324219 47.875 28.722656 47.875 L 25.21875 47.875 C 24.617188 47.875 24.070312 47.660156 23.675781 47.316406 C 23.277344 46.972656 23.03125 46.496094 23.03125 45.976562 L 23.03125 43.171875 C 23.03125 42.648438 23.277344 42.175781 23.675781 41.832031 C 24.070312 41.488281 24.617188 41.273438 25.21875 41.273438 Z M 35.324219 41.273438 L 38.824219 41.273438 C 39.425781 41.273438 39.972656 41.488281 40.371094 41.832031 C 40.765625 42.175781 41.011719 42.648438 41.011719 43.171875 L 41.011719 45.976562 C 41.011719 46.496094 40.765625 46.972656 40.371094 47.316406 C 39.972656 47.660156 39.425781 47.875 38.824219 47.875 L 35.324219 47.875 C 34.71875 47.875 34.171875 47.660156 33.777344 47.316406 C 33.382812 46.972656 33.136719 46.496094 33.136719 45.976562 L 33.136719 43.171875 C 33.136719 42.648438 33.382812 42.175781 33.777344 41.832031 C 34.171875 41.488281 34.71875 41.273438 35.324219 41.273438 Z M 45.425781 41.273438 L 48.929688 41.273438 C 49.53125 41.273438 50.078125 41.488281 50.472656 41.832031 C 50.867188 42.175781 51.113281 42.648438 51.113281 43.171875 L 51.113281 54.652344 C 51.113281 55.175781 50.867188 55.652344 50.472656 55.996094 C 50.078125 56.339844 49.53125 56.550781 48.929688 56.550781 L 45.425781 56.550781 C 44.824219 56.550781 44.277344 56.339844 43.882812 55.996094 C 43.484375 55.652344 43.238281 55.175781 43.238281 54.652344 L 43.238281 43.171875 C 43.238281 42.648438 43.484375 42.175781 43.882812 41.832031 C 44.277344 41.488281 44.824219 41.273438 45.425781 41.273438 Z M 25.21875 49.953125 L 28.722656 49.953125 C 29.324219 49.953125 29.871094 50.164062 30.265625 50.507812 C 30.664062 50.851562 30.90625 51.328125 30.90625 51.851562 L 30.90625 54.652344 C 30.90625 55.175781 30.664062 55.652344 30.265625 55.996094 C 29.871094 56.339844 29.324219 56.550781 28.722656 56.550781 L 25.21875 56.550781 C 24.617188 56.550781 24.070312 56.339844 23.675781 55.996094 C 23.277344 55.652344 23.03125 55.175781 23.03125 54.652344 L 23.03125 51.851562 C 23.03125 51.328125 23.277344 50.851562 23.675781 50.507812 C 24.070312 50.164062 24.617188 49.953125 25.21875 49.953125 Z M 35.324219 49.953125 L 38.824219 49.953125 C 39.425781 49.953125 39.972656 50.164062 40.371094 50.507812 C 40.765625 50.851562 41.011719 51.328125 41.011719 51.851562 L 41.011719 54.652344 C 41.011719 55.175781 40.765625 55.652344 40.371094 55.996094 C 39.972656 56.339844 39.425781 56.550781 38.824219 56.550781 L 35.324219 56.550781 C 34.71875 56.550781 34.171875 56.339844 33.777344 55.996094 C 33.382812 55.652344 33.136719 55.175781 33.136719 54.652344 L 33.136719 51.851562 C 33.136719 51.328125 33.382812 50.851562 33.777344 50.507812 C 34.171875 50.164062 34.71875 49.953125 35.324219 49.953125 Z M 51.195312 27.570312 C 51.195312 28.003906 51.007812 28.398438 50.699219 28.6875 C 50.390625 28.972656 49.96875 29.152344 49.503906 29.152344 L 25.238281 29.152344 C 24.773438 29.152344 24.351562 28.972656 24.042969 28.6875 C 23.734375 28.398438 23.546875 28.003906 23.546875 27.570312 L 23.546875 20.601562 C 23.546875 20.167969 23.734375 19.769531 24.042969 19.484375 C 24.351562 19.195312 24.773438 19.015625 25.238281 19.015625 L 49.503906 19.015625 C 49.96875 19.015625 50.390625 19.195312 50.699219 19.484375 C 51.007812 19.769531 51.195312 20.167969 51.195312 20.601562 L 51.195312 27.570312 "/></g></g></svg>