<svg xmlns="http://www.w3.org/2000/svg" xmlns:xlink="http://www.w3.org/1999/xlink" width="100" zoomAndPan="magnify" viewBox="0 0 75 74.999997" height="100" preserveAspectRatio="xMidYMid meet" version="1.2"><defs><clipPath id="3ca241ccce"><path d="M 15.828125 1.171875 L 59 1.171875 L 59 73.921875 L 15.828125 73.921875 Z M 15.828125 1.171875 "/></clipPath></defs><g id="c0adbb28b0"><g clip-rule="nonzero" clip-path="url(#3ca241ccce)"><path style=" stroke:none;fill-rule:nonzero;fill:#ece8e1;fill-opacity:1;" d="M 58.46875 22.488281 C 58.46875 10.714844 48.921875 1.171875 37.148438 1.171875 C 25.378906 1.171875 15.832031 10.714844 15.832031 22.488281 C 15.832031 34.261719 25.378906 43.808594 37.148438 43.808594 C 37.617188 43.808594 38.054688 43.699219 38.515625 43.667969 C 38.824219 45.128906 39.027344 46.4375 39.035156 47.441406 C 39.085938 54.304688 33.203125 73.820312 33.203125 73.820312 C 33.203125 73.820312 48.722656 63.972656 54.195312 48.15625 C 59.15625 33.820312 58.46875 22.488281 58.46875 22.488281 Z M 58.46875 22.488281 "/></g></g></svg>